<svg xmlns="http://www.w3.org/2000/svg" xmlns:xlink="http://www.w3.org/1999/xlink" contentStyleType="text/css" height="931px" preserveAspectRatio="none" style="width:577px;height:931px;background:#FFFFFF;" version="1.1" viewBox="0 0 577 931" width="577px" zoomAndPan="magnify"><defs/><g><!--class Base--><g id="elem_Base"><rect codeLine="1" fill="#F1F1F1" height="64.2969" id="Base" rx="2.5" ry="2.5" style="stroke:#181818;stroke-width:0.5;" width="83.3467" x="270.57" y="7"/><ellipse cx="293.3351" cy="23" fill="#A9DCDF" rx="11" ry="11" style="stroke:#181818;stroke-width:1.0;"/><path d="M293.4445,18.3438 L292.2883,23.4219 L294.6164,23.4219 L293.4445,18.3438 Z M291.9601,16.1094 L294.9445,16.1094 L298.3039,28.5 L295.8508,28.5 L295.0851,25.4375 L291.8039,25.4375 L291.0539,28.5 L288.6164,28.5 L291.9601,16.1094 Z " fill="#000000"/><text fill="#000000" font-family="sans-serif" font-size="14" font-style="italic" lengthAdjust="spacing" textLength="34.0908" x="309.0607" y="27.8467">Base</text><line style="stroke:#181818;stroke-width:0.5;" x1="271.57" x2="352.9167" y1="39" y2="39"/><ellipse cx="281.57" cy="52.6484" fill="none" rx="3" ry="3" style="stroke:#038048;stroke-width:1.0;"/><text fill="#000000" font-family="sans-serif" font-size="14" lengthAdjust="spacing" textLength="57.3467" x="290.57" y="55.9951">id: UUID</text><line style="stroke:#181818;stroke-width:0.5;" x1="271.57" x2="352.9167" y1="63.2969" y2="63.2969"/></g><!--class Asignatura--><g id="elem_Asignatura"><rect codeLine="5" fill="#F1F1F1" height="80.5938" id="Asignatura" rx="2.5" ry="2.5" style="stroke:#181818;stroke-width:0.5;" width="155.4043" x="163.54" y="496.37"/><ellipse cx="199.9633" cy="512.37" fill="#ADD1B2" rx="11" ry="11" style="stroke:#181818;stroke-width:1.0;"/><path d="M202.9321,518.0106 Q202.354,518.3075 201.7133,518.4481 Q201.0727,518.6044 200.3696,518.6044 Q197.8696,518.6044 196.5415,516.9638 Q195.229,515.3075 195.229,512.1825 Q195.229,509.0575 196.5415,507.4013 Q197.8696,505.745 200.3696,505.745 Q201.0727,505.745 201.7133,505.9013 Q202.3696,506.0575 202.9321,506.3544 L202.9321,509.0731 Q202.3071,508.495 201.7133,508.2294 Q201.1196,507.9481 200.4946,507.9481 Q199.1508,507.9481 198.4633,509.0263 Q197.7758,510.0888 197.7758,512.1825 Q197.7758,514.2763 198.4633,515.3544 Q199.1508,516.4169 200.4946,516.4169 Q201.1196,516.4169 201.7133,516.1513 Q202.3071,515.87 202.9321,515.2919 L202.9321,518.0106 Z " fill="#000000"/><text fill="#000000" font-family="sans-serif" font-size="14" lengthAdjust="spacing" textLength="75.7969" x="218.7241" y="517.2167">Asignatura</text><line style="stroke:#181818;stroke-width:0.5;" x1="164.54" x2="317.9443" y1="528.37" y2="528.37"/><ellipse cx="174.54" cy="542.0184" fill="none" rx="3" ry="3" style="stroke:#038048;stroke-width:1.0;"/><text fill="#000000" font-family="sans-serif" font-size="14" lengthAdjust="spacing" textLength="103.6875" x="183.54" y="545.3651">nombre: string</text><ellipse cx="174.54" cy="558.3153" fill="none" rx="3" ry="3" style="stroke:#038048;stroke-width:1.0;"/><text fill="#000000" font-family="sans-serif" font-size="14" lengthAdjust="spacing" textLength="129.4043" x="183.54" y="561.662">descripcion: string</text><line style="stroke:#181818;stroke-width:0.5;" x1="164.54" x2="317.9443" y1="568.9638" y2="568.9638"/></g><!--class Profesor--><g id="elem_Profesor"><rect codeLine="10" fill="#F1F1F1" height="129.4844" id="Profesor" rx="2.5" ry="2.5" style="stroke:#181818;stroke-width:0.5;" width="188.4902" x="7" y="653.97"/><ellipse cx="68.0347" cy="669.97" fill="#ADD1B2" rx="11" ry="11" style="stroke:#181818;stroke-width:1.0;"/><path d="M71.0034,675.6106 Q70.4253,675.9075 69.7847,676.0481 Q69.144,676.2044 68.4409,676.2044 Q65.9409,676.2044 64.6128,674.5638 Q63.3003,672.9075 63.3003,669.7825 Q63.3003,666.6575 64.6128,665.0013 Q65.9409,663.345 68.4409,663.345 Q69.144,663.345 69.7847,663.5013 Q70.4409,663.6575 71.0034,663.9544 L71.0034,666.6731 Q70.3784,666.095 69.7847,665.8294 Q69.1909,665.5481 68.5659,665.5481 Q67.2222,665.5481 66.5347,666.6263 Q65.8472,667.6888 65.8472,669.7825 Q65.8472,671.8763 66.5347,672.9544 Q67.2222,674.0169 68.5659,674.0169 Q69.1909,674.0169 69.7847,673.7513 Q70.3784,673.47 71.0034,672.8919 L71.0034,675.6106 Z " fill="#000000"/><text fill="#000000" font-family="sans-serif" font-size="14" lengthAdjust="spacing" textLength="57.9209" x="88.5347" y="674.8167">Profesor</text><line style="stroke:#181818;stroke-width:0.5;" x1="8" x2="194.4902" y1="685.97" y2="685.97"/><ellipse cx="18" cy="699.6184" fill="none" rx="3" ry="3" style="stroke:#038048;stroke-width:1.0;"/><text fill="#000000" font-family="sans-serif" font-size="14" lengthAdjust="spacing" textLength="103.6875" x="27" y="702.9651">nombre: string</text><ellipse cx="18" cy="715.9153" fill="none" rx="3" ry="3" style="stroke:#038048;stroke-width:1.0;"/><text fill="#000000" font-family="sans-serif" font-size="14" lengthAdjust="spacing" textLength="104.5557" x="27" y="719.262">apellido: string</text><ellipse cx="18" cy="732.2122" fill="none" rx="3" ry="3" style="stroke:#038048;stroke-width:1.0;"/><text fill="#000000" font-family="sans-serif" font-size="14" lengthAdjust="spacing" textLength="129.4043" x="27" y="735.5589">descripcion: string</text><ellipse cx="18" cy="748.5091" fill="none" rx="3" ry="3" style="stroke:#038048;stroke-width:1.0;"/><text fill="#000000" font-family="sans-serif" font-size="14" lengthAdjust="spacing" textLength="162.4902" x="27" y="751.8557">estatuDeSangre: enum</text><ellipse cx="18" cy="764.8059" fill="none" rx="3" ry="3" style="stroke:#038048;stroke-width:1.0;"/><text fill="#000000" font-family="sans-serif" font-size="14" lengthAdjust="spacing" textLength="161.0273" x="27" y="768.1526">fechaNacimiento: Date</text><line style="stroke:#181818;stroke-width:0.5;" x1="8" x2="194.4902" y1="775.4544" y2="775.4544"/></g><!--class Casa--><g id="elem_Casa"><rect codeLine="18" fill="#F1F1F1" height="80.5938" id="Casa" rx="2.5" ry="2.5" style="stroke:#181818;stroke-width:0.5;" width="138.7041" x="364.89" y="132.3"/><ellipse cx="412.8783" cy="148.3" fill="#ADD1B2" rx="11" ry="11" style="stroke:#181818;stroke-width:1.0;"/><path d="M415.847,153.9406 Q415.2689,154.2375 414.6283,154.3781 Q413.9877,154.5344 413.2845,154.5344 Q410.7845,154.5344 409.4564,152.8937 Q408.1439,151.2375 408.1439,148.1125 Q408.1439,144.9875 409.4564,143.3312 Q410.7845,141.675 413.2845,141.675 Q413.9877,141.675 414.6283,141.8312 Q415.2845,141.9875 415.847,142.2844 L415.847,145.0031 Q415.222,144.425 414.6283,144.1594 Q414.0345,143.8781 413.4095,143.8781 Q412.0658,143.8781 411.3783,144.9562 Q410.6908,146.0187 410.6908,148.1125 Q410.6908,150.2062 411.3783,151.2844 Q412.0658,152.3469 413.4095,152.3469 Q414.0345,152.3469 414.6283,152.0812 Q415.222,151.8 415.847,151.2219 L415.847,153.9406 Z " fill="#000000"/><text fill="#000000" font-family="sans-serif" font-size="14" lengthAdjust="spacing" textLength="34.2275" x="433.3783" y="153.1467">Casa</text><line style="stroke:#181818;stroke-width:0.5;" x1="365.89" x2="502.5941" y1="164.3" y2="164.3"/><ellipse cx="375.89" cy="177.9484" fill="none" rx="3" ry="3" style="stroke:#038048;stroke-width:1.0;"/><text fill="#000000" font-family="sans-serif" font-size="14" lengthAdjust="spacing" textLength="103.6875" x="384.89" y="181.2951">nombre: string</text><ellipse cx="375.89" cy="194.2453" fill="none" rx="3" ry="3" style="stroke:#038048;stroke-width:1.0;"/><text fill="#000000" font-family="sans-serif" font-size="14" lengthAdjust="spacing" textLength="112.7041" x="384.89" y="197.592">fundador: string</text><line style="stroke:#181818;stroke-width:0.5;" x1="365.89" x2="502.5941" y1="204.8937" y2="204.8937"/></g><!--class Estudiante--><g id="elem_Estudiante"><rect codeLine="23" fill="#F1F1F1" height="129.4844" id="Estudiante" rx="2.5" ry="2.5" style="stroke:#181818;stroke-width:0.5;" width="188.4902" x="295" y="289.89"/><ellipse cx="347.5786" cy="305.89" fill="#ADD1B2" rx="11" ry="11" style="stroke:#181818;stroke-width:1.0;"/><path d="M350.5474,311.5306 Q349.9692,311.8275 349.3286,311.9681 Q348.688,312.1244 347.9849,312.1244 Q345.4849,312.1244 344.1567,310.4838 Q342.8442,308.8275 342.8442,305.7025 Q342.8442,302.5775 344.1567,300.9213 Q345.4849,299.265 347.9849,299.265 Q348.688,299.265 349.3286,299.4213 Q349.9849,299.5775 350.5474,299.8744 L350.5474,302.5931 Q349.9224,302.015 349.3286,301.7494 Q348.7349,301.4681 348.1099,301.4681 Q346.7661,301.4681 346.0786,302.5463 Q345.3911,303.6088 345.3911,305.7025 Q345.3911,307.7963 346.0786,308.8744 Q346.7661,309.9369 348.1099,309.9369 Q348.7349,309.9369 349.3286,309.6713 Q349.9224,309.39 350.5474,308.8119 L350.5474,311.5306 Z " fill="#000000"/><text fill="#000000" font-family="sans-serif" font-size="14" lengthAdjust="spacing" textLength="74.833" x="368.0786" y="310.7367">Estudiante</text><line style="stroke:#181818;stroke-width:0.5;" x1="296" x2="482.4902" y1="321.89" y2="321.89"/><ellipse cx="306" cy="335.5384" fill="none" rx="3" ry="3" style="stroke:#038048;stroke-width:1.0;"/><text fill="#000000" font-family="sans-serif" font-size="14" lengthAdjust="spacing" textLength="103.6875" x="315" y="338.8851">nombre: string</text><ellipse cx="306" cy="351.8353" fill="none" rx="3" ry="3" style="stroke:#038048;stroke-width:1.0;"/><text fill="#000000" font-family="sans-serif" font-size="14" lengthAdjust="spacing" textLength="104.5557" x="315" y="355.182">apellido: string</text><ellipse cx="306" cy="368.1322" fill="none" rx="3" ry="3" style="stroke:#038048;stroke-width:1.0;"/><text fill="#000000" font-family="sans-serif" font-size="14" lengthAdjust="spacing" textLength="129.4043" x="315" y="371.4789">descripcion: string</text><ellipse cx="306" cy="384.4291" fill="none" rx="3" ry="3" style="stroke:#038048;stroke-width:1.0;"/><text fill="#000000" font-family="sans-serif" font-size="14" lengthAdjust="spacing" textLength="162.4902" x="315" y="387.7757">estatuDeSangre: enum</text><ellipse cx="306" cy="400.7259" fill="none" rx="3" ry="3" style="stroke:#038048;stroke-width:1.0;"/><text fill="#000000" font-family="sans-serif" font-size="14" lengthAdjust="spacing" textLength="161.0273" x="315" y="404.0726">fechaNacimiento: Date</text><line style="stroke:#181818;stroke-width:0.5;" x1="296" x2="482.4902" y1="411.3744" y2="411.3744"/></g><!--class EstudianteAsignatura--><g id="elem_EstudianteAsignatura"><rect codeLine="31" fill="#F1F1F1" height="80.5938" id="EstudianteAsignatura" rx="2.5" ry="2.5" style="stroke:#181818;stroke-width:0.5;" width="182.6299" x="230.93" y="678.41"/><ellipse cx="245.93" cy="694.41" fill="#ADD1B2" rx="11" ry="11" style="stroke:#181818;stroke-width:1.0;"/><path d="M248.8988,700.0506 Q248.3206,700.3475 247.68,700.4881 Q247.0394,700.6444 246.3363,700.6444 Q243.8363,700.6444 242.5081,699.0038 Q241.1956,697.3475 241.1956,694.2225 Q241.1956,691.0975 242.5081,689.4413 Q243.8363,687.785 246.3363,687.785 Q247.0394,687.785 247.68,687.9413 Q248.3363,688.0975 248.8988,688.3944 L248.8988,691.1131 Q248.2738,690.535 247.68,690.2694 Q247.0863,689.9881 246.4613,689.9881 Q245.1175,689.9881 244.43,691.0663 Q243.7425,692.1288 243.7425,694.2225 Q243.7425,696.3163 244.43,697.3944 Q245.1175,698.4569 246.4613,698.4569 Q247.0863,698.4569 247.68,698.1913 Q248.2738,697.91 248.8988,697.3319 L248.8988,700.0506 Z " fill="#000000"/><text fill="#000000" font-family="sans-serif" font-size="14" lengthAdjust="spacing" textLength="150.6299" x="259.93" y="699.2567">EstudianteAsignatura</text><line style="stroke:#181818;stroke-width:0.5;" x1="231.93" x2="412.5599" y1="710.41" y2="710.41"/><ellipse cx="241.93" cy="724.0584" fill="none" rx="3" ry="3" style="stroke:#038048;stroke-width:1.0;"/><text fill="#000000" font-family="sans-serif" font-size="14" lengthAdjust="spacing" textLength="132.1865" x="250.93" y="727.4051">estudianteId: UUID</text><ellipse cx="241.93" cy="740.3553" fill="none" rx="3" ry="3" style="stroke:#038048;stroke-width:1.0;"/><text fill="#000000" font-family="sans-serif" font-size="14" lengthAdjust="spacing" textLength="132.3848" x="250.93" y="743.702">asignaturaId: UUID</text><line style="stroke:#181818;stroke-width:0.5;" x1="231.93" x2="412.5599" y1="751.0038" y2="751.0038"/></g><!--class Fotografia--><g id="elem_Fotografia"><rect codeLine="36" fill="#F1F1F1" height="64.2969" id="Fotografia" rx="2.5" ry="2.5" style="stroke:#181818;stroke-width:0.5;" width="103.292" x="414.6" y="860.45"/><ellipse cx="429.6" cy="876.45" fill="#ADD1B2" rx="11" ry="11" style="stroke:#181818;stroke-width:1.0;"/><path d="M432.5688,882.0906 Q431.9906,882.3875 431.35,882.5281 Q430.7094,882.6844 430.0063,882.6844 Q427.5063,882.6844 426.1781,881.0438 Q424.8656,879.3875 424.8656,876.2625 Q424.8656,873.1375 426.1781,871.4813 Q427.5063,869.825 430.0063,869.825 Q430.7094,869.825 431.35,869.9813 Q432.0063,870.1375 432.5688,870.4344 L432.5688,873.1531 Q431.9438,872.575 431.35,872.3094 Q430.7563,872.0281 430.1313,872.0281 Q428.7875,872.0281 428.1,873.1063 Q427.4125,874.1688 427.4125,876.2625 Q427.4125,878.3563 428.1,879.4344 Q428.7875,880.4969 430.1313,880.4969 Q430.7563,880.4969 431.35,880.2313 Q431.9438,879.95 432.5688,879.3719 L432.5688,882.0906 Z " fill="#000000"/><text fill="#000000" font-family="sans-serif" font-size="14" lengthAdjust="spacing" textLength="71.292" x="443.6" y="881.2967">Fotografia</text><line style="stroke:#181818;stroke-width:0.5;" x1="415.6" x2="516.892" y1="892.45" y2="892.45"/><ellipse cx="425.6" cy="906.0984" fill="none" rx="3" ry="3" style="stroke:#038048;stroke-width:1.0;"/><text fill="#000000" font-family="sans-serif" font-size="14" lengthAdjust="spacing" textLength="67.874" x="434.6" y="909.4451">url: string</text><line style="stroke:#181818;stroke-width:0.5;" x1="415.6" x2="516.892" y1="916.7469" y2="916.7469"/></g><!--reverse link Base to Asignatura--><g id="link_Base_Asignatura"><path codeLine="40" d="M305.1963,89.3379 C292.7863,175.9279 260.64,400.33 246.92,496.04 " fill="none" id="Base-backto-Asignatura" style="stroke:#181818;stroke-width:1.0;"/><polygon fill="none" points="307.75,71.52,299.257,88.4867,311.1357,90.1892,307.75,71.52" style="stroke:#181818;stroke-width:1.0;"/></g><!--reverse link Base to Profesor--><g id="link_Base_Profesor"><path codeLine="41" d="M252.8494,51.9205 C193.6794,65.5505 110.25,95.86 110.25,171.59 C110.25,171.59 110.25,171.59 110.25,537.67 C110.25,576.17 108.17,619.23 106.01,653.59 " fill="none" id="Base-backto-Profesor" style="stroke:#181818;stroke-width:1.0;"/><polygon fill="none" points="270.39,47.88,251.5025,46.0737,254.1962,57.7674,270.39,47.88" style="stroke:#181818;stroke-width:1.0;"/></g><!--reverse link Base to Casa--><g id="link_Base_Casa"><path codeLine="42" d="M353.7108,84.827 C370.4808,102.907 379.47,112.58 397.39,131.88 " fill="none" id="Base-backto-Casa" style="stroke:#181818;stroke-width:1.0;"/><polygon fill="none" points="341.47,71.63,349.3118,88.9073,358.1099,80.7468,341.47,71.63" style="stroke:#181818;stroke-width:1.0;"/></g><!--reverse link Base to Estudiante--><g id="link_Base_Estudiante"><path codeLine="43" d="M320.9244,89.2543 C327.1944,124.0243 335,163.91 347.25,212.89 C353.55,238.12 361.5,265.59 368.78,289.51 " fill="none" id="Base-backto-Estudiante" style="stroke:#181818;stroke-width:1.0;"/><polygon fill="none" points="317.73,71.54,315.0196,90.3191,326.8291,88.1895,317.73,71.54" style="stroke:#181818;stroke-width:1.0;"/></g><!--reverse link Base to Fotografia--><g id="link_Base_Fotografia"><path codeLine="44" d="M372.1869,44.4777 C445.2969,51.5277 570.25,75.83 570.25,171.59 C570.25,171.59 570.25,171.59 570.25,719.71 C570.25,775.17 530.13,828.05 499.72,860.15 " fill="none" id="Base-backto-Fotografia" style="stroke:#181818;stroke-width:1.0;"/><polygon fill="none" points="354.27,42.75,371.611,50.45,372.7628,38.5054,354.27,42.75" style="stroke:#181818;stroke-width:1.0;"/></g><!--link Asignatura to Profesor--><g id="link_Asignatura_Profesor"><path codeLine="46" d="M210.52,577.18 C193.14,599.54 170.97,628.05 151.15,653.53 " fill="none" id="Asignatura-Profesor" style="stroke:#181818;stroke-width:1.0;"/><text fill="#000000" font-family="sans-serif" font-size="13" lengthAdjust="spacing" textLength="47.2139" x="185.25" y="620.0369">ense&#241;a</text><text fill="#000000" font-family="sans-serif" font-size="13" lengthAdjust="spacing" textLength="8.271" x="197.0078" y="596.9096">1</text><text fill="#000000" font-family="sans-serif" font-size="13" lengthAdjust="spacing" textLength="8.271" x="147.8979" y="643.1084">1</text></g><!--link Casa to Estudiante--><g id="link_Casa_Estudiante"><path codeLine="47" d="M424.37,213.1 C418.78,235.46 411.66,263.97 405.29,289.45 " fill="none" id="Casa-Estudiante" style="stroke:#181818;stroke-width:1.0;"/><text fill="#000000" font-family="sans-serif" font-size="13" lengthAdjust="spacing" textLength="78.1714" x="416.25" y="255.9569">pertenece a</text><text fill="#000000" font-family="sans-serif" font-size="13" lengthAdjust="spacing" textLength="8.271" x="414.1807" y="232.828">1</text><text fill="#000000" font-family="sans-serif" font-size="13" lengthAdjust="spacing" textLength="23.0356" x="382.7605" y="279.0284">0..*</text></g><!--link Estudiante to Asignatura--><g id="link_Estudiante_Asignatura"><path codeLine="48" d="M336.44,419.87 C315.52,445.32 292.13,473.77 273.77,496.1 " fill="none" id="Estudiante-Asignatura" style="stroke:#181818;stroke-width:1.0;"/><text fill="#000000" font-family="sans-serif" font-size="13" lengthAdjust="spacing" textLength="33.6807" x="311.25" y="462.4369">toma</text><text fill="#000000" font-family="sans-serif" font-size="13" lengthAdjust="spacing" textLength="23.0356" x="306.8104" y="439.4448">0..*</text><text fill="#000000" font-family="sans-serif" font-size="13" lengthAdjust="spacing" textLength="23.0356" x="254.2557" y="485.2168">0..*</text></g><!--link Estudiante to EstudianteAsignatura--><g id="link_Estudiante_EstudianteAsignatura"><path codeLine="49" d="M377.42,419.53 C363.6,494.24 341.14,615.6 329.6,677.95 " fill="none" id="Estudiante-EstudianteAsignatura" style="stroke:#181818;stroke-width:1.0;"/><text fill="#000000" font-family="sans-serif" font-size="13" lengthAdjust="spacing" textLength="14.771" x="363.25" y="541.2369">es</text><text fill="#000000" font-family="sans-serif" font-size="13" lengthAdjust="spacing" textLength="23.0356" x="351.8708" y="439.5227">0..*</text><text fill="#000000" font-family="sans-serif" font-size="13" lengthAdjust="spacing" textLength="23.0356" x="332.6079" y="667.3365">0..*</text></g><!--link Asignatura to EstudianteAsignatura--><g id="link_Asignatura_EstudianteAsignatura"><path codeLine="50" d="M267.12,577.2 C272.82,586.74 278.55,597.05 283.25,606.97 C294.05,629.82 303.54,656.51 310.45,677.97 " fill="none" id="Asignatura-EstudianteAsignatura" style="stroke:#181818;stroke-width:1.0;"/><text fill="#000000" font-family="sans-serif" font-size="13" lengthAdjust="spacing" textLength="14.771" x="290.25" y="620.0369">es</text><text fill="#000000" font-family="sans-serif" font-size="13" lengthAdjust="spacing" textLength="23.0356" x="246.4143" y="596.9328">0..*</text><text fill="#000000" font-family="sans-serif" font-size="13" lengthAdjust="spacing" textLength="23.0356" x="283.7402" y="667.3597">0..*</text></g><!--link Estudiante to Fotografia--><g id="link_Estudiante_Fotografia"><path codeLine="51" d="M398.46,419.75 C415.06,535.34 449.43,774.59 461.74,860.25 " fill="none" id="Estudiante-Fotografia" style="stroke:#181818;stroke-width:1.0;"/><text fill="#000000" font-family="sans-serif" font-size="13" lengthAdjust="spacing" textLength="79.5488" x="428.25" y="620.0369">puede tener</text><text fill="#000000" font-family="sans-serif" font-size="13" lengthAdjust="spacing" textLength="23.0356" x="400.5981" y="439.3125">0..*</text><text fill="#000000" font-family="sans-serif" font-size="13" lengthAdjust="spacing" textLength="8.271" x="452.0921" y="849.4848">1</text></g><!--link Profesor to Fotografia--><g id="link_Profesor_Fotografia"><path codeLine="52" d="M195.86,774.54 C201.71,777.62 207.53,780.62 213.25,783.45 C281.28,817.22 362.4,850.76 414.1,871.33 " fill="none" id="Profesor-Fotografia" style="stroke:#181818;stroke-width:1.0;"/><text fill="#000000" font-family="sans-serif" font-size="13" lengthAdjust="spacing" textLength="79.5488" x="310.25" y="826.5169">puede tener</text><text fill="#000000" font-family="sans-serif" font-size="13" lengthAdjust="spacing" textLength="23.0356" x="199.8062" y="777.0279">0..*</text><text fill="#000000" font-family="sans-serif" font-size="13" lengthAdjust="spacing" textLength="8.271" x="398.2235" y="864.3607">1</text></g><!--SRC=[nLD1JiCm4Bpx5PQFe5PmZRW01IaNX8JwWAsz2POIE_BQ9-1Hl86FOOScDagXSEefykxix8p7WHrv1z9psG4Hlm52_i8uF-TQLNoxhJViZR6lvZNfre0F3lOGO_kTmuf72ctQiQIGfDE3rDRCzPdWqTa6oRgVns70hjFA7kLCTIGVrMpm2KoRUD24VcmqA9_X0QJkDHeVoJRWCSku1Vh5GHEC0cNTKluT-Q0q68ydDf25B2B1kLLF-OsoPbozYFNUUjiwQFJ44LnNcX_VnDNhQbKyWA8uXLgKqWKNnootAEQjZ1KknANWiPi-4t751Hh2ZtSGR8nkmboirsUYO8_00Pr7Wn9v11TvxR5vAg-CKzxsH-27RZpf8l5D_3_63c-BplB593y15V9aoGas_pv_7FW4]--></g></svg>