<svg xmlns="http://www.w3.org/2000/svg" xmlns:xlink="http://www.w3.org/1999/xlink" contentStyleType="text/css" height="899px" preserveAspectRatio="none" style="width:597px;height:899px;background:#FFFFFF;" version="1.1" viewBox="0 0 597 899" width="597px" zoomAndPan="magnify"><defs/><g><!--class Base--><g id="elem_Base"><rect codeLine="1" fill="#F1F1F1" height="64.2969" id="Base" rx="2.5" ry="2.5" style="stroke:#181818;stroke-width:0.5;" width="83.3467" x="272.33" y="7"/><ellipse cx="295.0951" cy="23" fill="#A9DCDF" rx="11" ry="11" style="stroke:#181818;stroke-width:1.0;"/><path d="M295.2045,18.3438 L294.0483,23.4219 L296.3764,23.4219 L295.2045,18.3438 Z M293.7201,16.1094 L296.7045,16.1094 L300.0639,28.5 L297.6108,28.5 L296.8451,25.4375 L293.5639,25.4375 L292.8139,28.5 L290.3764,28.5 L293.7201,16.1094 Z " fill="#000000"/><text fill="#000000" font-family="sans-serif" font-size="14" font-style="italic" lengthAdjust="spacing" textLength="34.0908" x="310.8207" y="27.8467">Base</text><line style="stroke:#181818;stroke-width:0.5;" x1="273.33" x2="354.6767" y1="39" y2="39"/><ellipse cx="283.33" cy="52.6484" fill="none" rx="3" ry="3" style="stroke:#038048;stroke-width:1.0;"/><text fill="#000000" font-family="sans-serif" font-size="14" lengthAdjust="spacing" textLength="57.3467" x="292.33" y="55.9951">id: UUID</text><line style="stroke:#181818;stroke-width:0.5;" x1="273.33" x2="354.6767" y1="63.2969" y2="63.2969"/></g><!--class Person--><g id="elem_Person"><rect codeLine="5" fill="#F1F1F1" height="162.0781" id="Person" rx="2.5" ry="2.5" style="stroke:#181818;stroke-width:0.5;" width="202.6953" x="58.65" y="132.3"/><ellipse cx="131.9757" cy="148.3" fill="#A9DCDF" rx="11" ry="11" style="stroke:#181818;stroke-width:1.0;"/><path d="M132.0851,143.6437 L130.9288,148.7219 L133.2569,148.7219 L132.0851,143.6437 Z M130.6007,141.4094 L133.5851,141.4094 L136.9444,153.8 L134.4913,153.8 L133.7257,150.7375 L130.4444,150.7375 L129.6944,153.8 L127.2569,153.8 L130.6007,141.4094 Z " fill="#000000"/><text fill="#000000" font-family="sans-serif" font-size="14" font-style="italic" lengthAdjust="spacing" textLength="47.5439" x="152.4757" y="153.1467">Person</text><line style="stroke:#181818;stroke-width:0.5;" x1="59.65" x2="260.3453" y1="164.3" y2="164.3"/><ellipse cx="69.65" cy="177.9484" fill="none" rx="3" ry="3" style="stroke:#038048;stroke-width:1.0;"/><text fill="#000000" font-family="sans-serif" font-size="14" lengthAdjust="spacing" textLength="118.0156" x="78.65" y="181.2951">firstName: string</text><ellipse cx="69.65" cy="194.2453" fill="none" rx="3" ry="3" style="stroke:#038048;stroke-width:1.0;"/><text fill="#000000" font-family="sans-serif" font-size="14" lengthAdjust="spacing" textLength="115.9102" x="78.65" y="197.592">lastName: string</text><ellipse cx="69.65" cy="210.5422" fill="none" rx="3" ry="3" style="stroke:#038048;stroke-width:1.0;"/><text fill="#000000" font-family="sans-serif" font-size="14" lengthAdjust="spacing" textLength="127.1963" x="78.65" y="213.8889">description: string</text><ellipse cx="69.65" cy="226.8391" fill="none" rx="3" ry="3" style="stroke:#038048;stroke-width:1.0;"/><text fill="#000000" font-family="sans-serif" font-size="14" lengthAdjust="spacing" textLength="53.498" x="78.65" y="230.1857">age: int</text><ellipse cx="69.65" cy="243.1359" fill="none" rx="3" ry="3" style="stroke:#038048;stroke-width:1.0;"/><text fill="#000000" font-family="sans-serif" font-size="14" lengthAdjust="spacing" textLength="123.7578" x="78.65" y="246.4826">dateOfBirth: Date</text><ellipse cx="69.65" cy="259.4328" fill="none" rx="3" ry="3" style="stroke:#038048;stroke-width:1.0;"/><text fill="#000000" font-family="sans-serif" font-size="14" lengthAdjust="spacing" textLength="176.6953" x="78.65" y="262.7795">bloodStatus: BloodStatus</text><ellipse cx="69.65" cy="275.7297" fill="none" rx="3" ry="3" style="stroke:#038048;stroke-width:1.0;"/><text fill="#000000" font-family="sans-serif" font-size="14" lengthAdjust="spacing" textLength="107.1328" x="78.65" y="279.0764">picture: Picture</text><line style="stroke:#181818;stroke-width:0.5;" x1="59.65" x2="260.3453" y1="286.3781" y2="286.3781"/></g><!--class Subject--><g id="elem_Subject"><rect codeLine="15" fill="#F1F1F1" height="80.5938" id="Subject" rx="2.5" ry="2.5" style="stroke:#181818;stroke-width:0.5;" width="153.1963" x="208.4" y="496.38"/><ellipse cx="254.5802" cy="512.38" fill="#ADD1B2" rx="11" ry="11" style="stroke:#181818;stroke-width:1.0;"/><path d="M257.5489,518.0206 Q256.9708,518.3175 256.3302,518.4581 Q255.6896,518.6144 254.9864,518.6144 Q252.4864,518.6144 251.1583,516.9738 Q249.8458,515.3175 249.8458,512.1925 Q249.8458,509.0675 251.1583,507.4113 Q252.4864,505.755 254.9864,505.755 Q255.6896,505.755 256.3302,505.9113 Q256.9864,506.0675 257.5489,506.3644 L257.5489,509.0831 Q256.9239,508.505 256.3302,508.2394 Q255.7364,507.9581 255.1114,507.9581 Q253.7677,507.9581 253.0802,509.0363 Q252.3927,510.0988 252.3927,512.1925 Q252.3927,514.2863 253.0802,515.3644 Q253.7677,516.4269 255.1114,516.4269 Q255.7364,516.4269 256.3302,516.1613 Q256.9239,515.88 257.5489,515.3019 L257.5489,518.0206 Z " fill="#000000"/><text fill="#000000" font-family="sans-serif" font-size="14" lengthAdjust="spacing" textLength="52.3359" x="275.0802" y="517.2267">Subject</text><line style="stroke:#181818;stroke-width:0.5;" x1="209.4" x2="360.5963" y1="528.38" y2="528.38"/><ellipse cx="219.4" cy="542.0284" fill="none" rx="3" ry="3" style="stroke:#038048;stroke-width:1.0;"/><text fill="#000000" font-family="sans-serif" font-size="14" lengthAdjust="spacing" textLength="89.0586" x="228.4" y="545.3751">name: string</text><ellipse cx="219.4" cy="558.3253" fill="none" rx="3" ry="3" style="stroke:#038048;stroke-width:1.0;"/><text fill="#000000" font-family="sans-serif" font-size="14" lengthAdjust="spacing" textLength="127.1963" x="228.4" y="561.672">description: string</text><line style="stroke:#181818;stroke-width:0.5;" x1="209.4" x2="360.5963" y1="568.9738" y2="568.9738"/></g><!--class Teacher--><g id="elem_Teacher"><rect codeLine="20" fill="#F1F1F1" height="48" id="Teacher" rx="2.5" ry="2.5" style="stroke:#181818;stroke-width:0.5;" width="88.6836" x="126.66" y="678.42"/><ellipse cx="141.66" cy="694.42" fill="#ADD1B2" rx="11" ry="11" style="stroke:#181818;stroke-width:1.0;"/><path d="M144.6288,700.0606 Q144.0506,700.3575 143.41,700.4981 Q142.7694,700.6544 142.0663,700.6544 Q139.5663,700.6544 138.2381,699.0138 Q136.9256,697.3575 136.9256,694.2325 Q136.9256,691.1075 138.2381,689.4513 Q139.5663,687.795 142.0663,687.795 Q142.7694,687.795 143.41,687.9513 Q144.0663,688.1075 144.6288,688.4044 L144.6288,691.1231 Q144.0038,690.545 143.41,690.2794 Q142.8163,689.9981 142.1913,689.9981 Q140.8475,689.9981 140.16,691.0763 Q139.4725,692.1388 139.4725,694.2325 Q139.4725,696.3263 140.16,697.4044 Q140.8475,698.4669 142.1913,698.4669 Q142.8163,698.4669 143.41,698.2013 Q144.0038,697.92 144.6288,697.3419 L144.6288,700.0606 Z " fill="#000000"/><text fill="#000000" font-family="sans-serif" font-size="14" lengthAdjust="spacing" textLength="56.6836" x="155.66" y="699.2667">Teacher</text><line style="stroke:#181818;stroke-width:0.5;" x1="127.66" x2="214.3436" y1="710.42" y2="710.42"/><line style="stroke:#181818;stroke-width:0.5;" x1="127.66" x2="214.3436" y1="718.42" y2="718.42"/></g><!--class House--><g id="elem_House"><rect codeLine="23" fill="#F1F1F1" height="80.5938" id="House" rx="2.5" ry="2.5" style="stroke:#181818;stroke-width:0.5;" width="129.8516" x="367.07" y="173.04"/><ellipse cx="406.3603" cy="189.04" fill="#ADD1B2" rx="11" ry="11" style="stroke:#181818;stroke-width:1.0;"/><path d="M409.3291,194.6806 Q408.751,194.9775 408.1103,195.1181 Q407.4697,195.2744 406.7666,195.2744 Q404.2666,195.2744 402.9385,193.6337 Q401.626,191.9775 401.626,188.8525 Q401.626,185.7275 402.9385,184.0712 Q404.2666,182.415 406.7666,182.415 Q407.4697,182.415 408.1103,182.5712 Q408.7666,182.7275 409.3291,183.0244 L409.3291,185.7431 Q408.7041,185.165 408.1103,184.8994 Q407.5166,184.6181 406.8916,184.6181 Q405.5478,184.6181 404.8603,185.6962 Q404.1728,186.7587 404.1728,188.8525 Q404.1728,190.9462 404.8603,192.0244 Q405.5478,193.0869 406.8916,193.0869 Q407.5166,193.0869 408.1103,192.8212 Q408.7041,192.54 409.3291,191.9619 L409.3291,194.6806 Z " fill="#000000"/><text fill="#000000" font-family="sans-serif" font-size="14" lengthAdjust="spacing" textLength="43.873" x="425.7582" y="193.8867">House</text><line style="stroke:#181818;stroke-width:0.5;" x1="368.07" x2="495.9216" y1="205.04" y2="205.04"/><ellipse cx="378.07" cy="218.6884" fill="none" rx="3" ry="3" style="stroke:#038048;stroke-width:1.0;"/><text fill="#000000" font-family="sans-serif" font-size="14" lengthAdjust="spacing" textLength="89.0586" x="387.07" y="222.0351">name: string</text><ellipse cx="378.07" cy="234.9853" fill="none" rx="3" ry="3" style="stroke:#038048;stroke-width:1.0;"/><text fill="#000000" font-family="sans-serif" font-size="14" lengthAdjust="spacing" textLength="103.8516" x="387.07" y="238.332">founder: string</text><line style="stroke:#181818;stroke-width:0.5;" x1="368.07" x2="495.9216" y1="245.6337" y2="245.6337"/></g><!--class Student--><g id="elem_Student"><rect codeLine="28" fill="#F1F1F1" height="48" id="Student" rx="2.5" ry="2.5" style="stroke:#181818;stroke-width:0.5;" width="87.1113" x="388.44" y="371.38"/><ellipse cx="403.44" cy="387.38" fill="#ADD1B2" rx="11" ry="11" style="stroke:#181818;stroke-width:1.0;"/><path d="M406.4088,393.0206 Q405.8306,393.3175 405.19,393.4581 Q404.5494,393.6144 403.8463,393.6144 Q401.3463,393.6144 400.0181,391.9738 Q398.7056,390.3175 398.7056,387.1925 Q398.7056,384.0675 400.0181,382.4113 Q401.3463,380.755 403.8463,380.755 Q404.5494,380.755 405.19,380.9113 Q405.8463,381.0675 406.4088,381.3644 L406.4088,384.0831 Q405.7838,383.505 405.19,383.2394 Q404.5963,382.9581 403.9713,382.9581 Q402.6275,382.9581 401.94,384.0363 Q401.2525,385.0988 401.2525,387.1925 Q401.2525,389.2863 401.94,390.3644 Q402.6275,391.4269 403.9713,391.4269 Q404.5963,391.4269 405.19,391.1613 Q405.7838,390.88 406.4088,390.3019 L406.4088,393.0206 Z " fill="#000000"/><text fill="#000000" font-family="sans-serif" font-size="14" lengthAdjust="spacing" textLength="55.1113" x="417.44" y="392.2267">Student</text><line style="stroke:#181818;stroke-width:0.5;" x1="389.44" x2="474.5513" y1="403.38" y2="403.38"/><line style="stroke:#181818;stroke-width:0.5;" x1="389.44" x2="474.5513" y1="411.38" y2="411.38"/></g><!--class StudentSubject--><g id="elem_StudentSubject"><rect codeLine="31" fill="#F1F1F1" height="96.8906" id="StudentSubject" rx="2.5" ry="2.5" style="stroke:#181818;stroke-width:0.5;" width="178.291" x="265.85" y="653.97"/><ellipse cx="298.3297" cy="669.97" fill="#ADD1B2" rx="11" ry="11" style="stroke:#181818;stroke-width:1.0;"/><path d="M301.2984,675.6106 Q300.7203,675.9075 300.0797,676.0481 Q299.4391,676.2044 298.7359,676.2044 Q296.2359,676.2044 294.9078,674.5637 Q293.5953,672.9075 293.5953,669.7825 Q293.5953,666.6575 294.9078,665.0012 Q296.2359,663.345 298.7359,663.345 Q299.4391,663.345 300.0797,663.5012 Q300.7359,663.6575 301.2984,663.9544 L301.2984,666.6731 Q300.6734,666.095 300.0797,665.8294 Q299.4859,665.5481 298.8609,665.5481 Q297.5172,665.5481 296.8297,666.6262 Q296.1422,667.6887 296.1422,669.7825 Q296.1422,671.8762 296.8297,672.9544 Q297.5172,674.0169 298.8609,674.0169 Q299.4859,674.0169 300.0797,673.7512 Q300.6734,673.47 301.2984,672.8919 L301.2984,675.6106 Z " fill="#000000"/><text fill="#000000" font-family="sans-serif" font-size="14" lengthAdjust="spacing" textLength="107.4473" x="316.2141" y="674.8167">StudentSubject</text><line style="stroke:#181818;stroke-width:0.5;" x1="266.85" x2="443.141" y1="685.97" y2="685.97"/><ellipse cx="276.85" cy="699.6184" fill="none" rx="3" ry="3" style="stroke:#038048;stroke-width:1.0;"/><text fill="#000000" font-family="sans-serif" font-size="14" lengthAdjust="spacing" textLength="111.1045" x="285.85" y="702.9651">studentId: UUID</text><ellipse cx="276.85" cy="715.9153" fill="none" rx="3" ry="3" style="stroke:#038048;stroke-width:1.0;"/><text fill="#000000" font-family="sans-serif" font-size="14" lengthAdjust="spacing" textLength="108.3291" x="285.85" y="719.262">subjectId: UUID</text><ellipse cx="276.85" cy="732.2122" fill="none" rx="3" ry="3" style="stroke:#038048;stroke-width:1.0;"/><text fill="#000000" font-family="sans-serif" font-size="14" lengthAdjust="spacing" textLength="152.291" x="285.85" y="735.5589">enrollmentDate: Date</text><line style="stroke:#181818;stroke-width:0.5;" x1="266.85" x2="443.141" y1="742.8606" y2="742.8606"/></g><!--class Photograph--><g id="elem_Photograph"><rect codeLine="37" fill="#F1F1F1" height="64.2969" id="Photograph" rx="2.5" ry="2.5" style="stroke:#181818;stroke-width:0.5;" width="112.917" x="114.54" y="827.86"/><ellipse cx="129.54" cy="843.86" fill="#ADD1B2" rx="11" ry="11" style="stroke:#181818;stroke-width:1.0;"/><path d="M132.5088,849.5006 Q131.9306,849.7975 131.29,849.9381 Q130.6494,850.0944 129.9463,850.0944 Q127.4463,850.0944 126.1181,848.4538 Q124.8056,846.7975 124.8056,843.6725 Q124.8056,840.5475 126.1181,838.8913 Q127.4463,837.235 129.9463,837.235 Q130.6494,837.235 131.29,837.3913 Q131.9463,837.5475 132.5088,837.8444 L132.5088,840.5631 Q131.8838,839.985 131.29,839.7194 Q130.6963,839.4381 130.0713,839.4381 Q128.7275,839.4381 128.04,840.5163 Q127.3525,841.5788 127.3525,843.6725 Q127.3525,845.7663 128.04,846.8444 Q128.7275,847.9069 130.0713,847.9069 Q130.6963,847.9069 131.29,847.6413 Q131.8838,847.36 132.5088,846.7819 L132.5088,849.5006 Z " fill="#000000"/><text fill="#000000" font-family="sans-serif" font-size="14" lengthAdjust="spacing" textLength="80.917" x="143.54" y="848.7067">Photograph</text><line style="stroke:#181818;stroke-width:0.5;" x1="115.54" x2="226.457" y1="859.86" y2="859.86"/><ellipse cx="125.54" cy="873.5084" fill="none" rx="3" ry="3" style="stroke:#038048;stroke-width:1.0;"/><text fill="#000000" font-family="sans-serif" font-size="14" lengthAdjust="spacing" textLength="67.874" x="134.54" y="876.8551">url: string</text><line style="stroke:#181818;stroke-width:0.5;" x1="115.54" x2="226.457" y1="884.1569" y2="884.1569"/></g><!--reverse link Base to Person--><g id="link_Base_Person"><path d="M273.7528,85.1489 C258.5628,102.1389 251.06,110.53 231.97,131.87 " fill="none" id="Base-backto-Person" style="stroke:#181818;stroke-width:1.0;"/><polygon fill="none" points="285.75,71.73,269.2798,81.1498,278.2257,89.148,285.75,71.73" style="stroke:#181818;stroke-width:1.0;"/></g><!--reverse link Person to Teacher--><g id="link_Person_Teacher"><path d="M162.2265,312.7654 C164.7965,426.5254 168.94,610.15 170.48,678.23 " fill="none" id="Person-backto-Teacher" style="stroke:#181818;stroke-width:1.0;"/><polygon fill="none" points="161.82,294.77,156.2281,312.9009,168.225,312.6299,161.82,294.77" style="stroke:#181818;stroke-width:1.0;"/></g><!--reverse link Person to Student--><g id="link_Person_Student"><path d="M276.68,291.5748 C324.06,322.9348 362.38,348.3 396.54,370.91 " fill="none" id="Person-backto-Student" style="stroke:#181818;stroke-width:1.0;"/><polygon fill="none" points="261.67,281.64,273.3684,296.5782,279.9916,286.5715,261.67,281.64" style="stroke:#181818;stroke-width:1.0;"/></g><!--reverse link Base to Subject--><g id="link_Base_Subject"><path codeLine="41" d="M311.1098,89.4993 C306.0498,176.0793 292.92,400.34 287.32,496.04 " fill="none" id="Base-backto-Subject" style="stroke:#181818;stroke-width:1.0;"/><polygon fill="none" points="312.16,71.53,305.12,89.1493,317.0996,89.8494,312.16,71.53" style="stroke:#181818;stroke-width:1.0;"/></g><!--reverse link Base to House--><g id="link_Base_House"><path codeLine="42" d="M345.8165,86.5772 C365.3165,115.0272 383.88,142.12 404.89,172.79 " fill="none" id="Base-backto-House" style="stroke:#181818;stroke-width:1.0;"/><polygon fill="none" points="335.64,71.73,340.8674,89.9694,350.7655,83.185,335.64,71.73" style="stroke:#181818;stroke-width:1.0;"/></g><!--reverse link Base to StudentSubject--><g id="link_Base_StudentSubject"><path codeLine="43" d="M373.5711,50.2454 C449.8711,65.0354 586,104.75 586,212.34 C586,212.34 586,212.34 586,537.68 C586,577.26 590.48,594.55 564,623.97 C533.33,658.06 486.27,677.18 444.57,687.89 " fill="none" id="Base-backto-StudentSubject" style="stroke:#181818;stroke-width:1.0;"/><polygon fill="none" points="355.9,46.82,372.4293,56.1357,374.7129,44.355,355.9,46.82" style="stroke:#181818;stroke-width:1.0;"/></g><!--reverse link Base to Photograph--><g id="link_Base_Photograph"><path codeLine="44" d="M254.2825,46.4405 C170.0725,57.1005 6,91.81 6,212.34 C6,212.34 6,212.34 6,703.42 C6,764.45 66.49,808.61 114.22,833.96 " fill="none" id="Base-backto-Photograph" style="stroke:#181818;stroke-width:1.0;"/><polygon fill="none" points="272.14,44.18,253.529,40.4881,255.036,52.393,272.14,44.18" style="stroke:#181818;stroke-width:1.0;"/></g><!--link Subject to Teacher--><g id="link_Subject_Teacher"><path codeLine="46" d="M257.4,577.31 C235.39,608.93 205.33,652.11 187.09,678.31 " fill="none" id="Subject-Teacher" style="stroke:#181818;stroke-width:1.0;"/><text fill="#000000" font-family="sans-serif" font-size="13" lengthAdjust="spacing" textLength="51.2192" x="236" y="620.0369">teaches</text><text fill="#000000" font-family="sans-serif" font-size="13" lengthAdjust="spacing" textLength="8.271" x="244.3856" y="597.0587">1</text><text fill="#000000" font-family="sans-serif" font-size="13" lengthAdjust="spacing" textLength="8.271" x="182.2223" y="667.2938">1</text></g><!--link House to Student--><g id="link_House_Student"><path codeLine="47" d="M432,253.85 C432,289.66 432,341.25 432,370.94 " fill="none" id="House-Student" style="stroke:#181818;stroke-width:1.0;"/><text fill="#000000" font-family="sans-serif" font-size="13" lengthAdjust="spacing" textLength="68.2627" x="433" y="337.4469">belongs to</text><text fill="#000000" font-family="sans-serif" font-size="13" lengthAdjust="spacing" textLength="8.271" x="423.3848" y="273.5796">1</text><text fill="#000000" font-family="sans-serif" font-size="13" lengthAdjust="spacing" textLength="23.0356" x="406.2023" y="360.2377">0..*</text></g><!--link Student to Subject--><g id="link_Student_Subject"><path codeLine="48" d="M402.94,419.8 C392.08,428.82 379.78,439.35 369,449.38 C353.08,464.19 336.23,481.21 321.83,496.2 " fill="none" id="Student-Subject" style="stroke:#181818;stroke-width:1.0;"/><text fill="#000000" font-family="sans-serif" font-size="13" lengthAdjust="spacing" textLength="35.3628" x="370" y="462.4469">takes</text><text fill="#000000" font-family="sans-serif" font-size="13" lengthAdjust="spacing" textLength="23.0356" x="370.5656" y="439.2638">0..*</text><text fill="#000000" font-family="sans-serif" font-size="13" lengthAdjust="spacing" textLength="23.0356" x="303.0285" y="485.3317">0..*</text></g><!--link Student to StudentSubject--><g id="link_Student_StudentSubject"><path codeLine="49" d="M426.09,419.81 C413.5,469.68 383.83,587.2 367.07,653.59 " fill="none" id="Student-StudentSubject" style="stroke:#181818;stroke-width:1.0;"/><text fill="#000000" font-family="sans-serif" font-size="13" lengthAdjust="spacing" textLength="10.3848" x="408" y="541.2469">is</text><text fill="#000000" font-family="sans-serif" font-size="13" lengthAdjust="spacing" textLength="23.0356" x="399.0691" y="439.2761">0..*</text><text fill="#000000" font-family="sans-serif" font-size="13" lengthAdjust="spacing" textLength="23.0356" x="344.1533" y="642.7455">0..*</text></g><!--link Subject to StudentSubject--><g id="link_Subject_StudentSubject"><path codeLine="50" d="M301.95,577.31 C311.78,600.31 324.23,629.44 334.6,653.69 " fill="none" id="Subject-StudentSubject" style="stroke:#181818;stroke-width:1.0;"/><text fill="#000000" font-family="sans-serif" font-size="13" lengthAdjust="spacing" textLength="10.3848" x="321" y="620.0369">is</text><text fill="#000000" font-family="sans-serif" font-size="13" lengthAdjust="spacing" textLength="23.0356" x="279.8217" y="597.0587">0..*</text><text fill="#000000" font-family="sans-serif" font-size="13" lengthAdjust="spacing" textLength="23.0356" x="307.1172" y="642.8595">0..*</text></g><!--link Student to Photograph--><g id="link_Student_Photograph"><path codeLine="51" d="M443.3,419.71 C470.94,480.52 534.62,646.4 462,750.86 C409.24,826.76 296.57,849.5 227.94,856.25 " fill="none" id="Student-Photograph" style="stroke:#181818;stroke-width:1.0;"/><text fill="#000000" font-family="sans-serif" font-size="13" lengthAdjust="spacing" textLength="64.3525" x="496" y="620.0369">may have</text><text fill="#000000" font-family="sans-serif" font-size="13" lengthAdjust="spacing" textLength="23.0356" x="448.8629" y="439.5516">0..*</text><text fill="#000000" font-family="sans-serif" font-size="13" lengthAdjust="spacing" textLength="8.271" x="235.3838" y="851.9529">1</text></g><!--link Teacher to Photograph--><g id="link_Teacher_Photograph"><path codeLine="52" d="M171,726.71 C171,753.5 171,797.62 171,827.47 " fill="none" id="Teacher-Photograph" style="stroke:#181818;stroke-width:1.0;"/><text fill="#000000" font-family="sans-serif" font-size="13" lengthAdjust="spacing" textLength="64.3525" x="172" y="793.9269">may have</text><text fill="#000000" font-family="sans-serif" font-size="13" lengthAdjust="spacing" textLength="23.0356" x="145.2008" y="746.5419">0..*</text><text fill="#000000" font-family="sans-serif" font-size="13" lengthAdjust="spacing" textLength="8.271" x="162.2636" y="816.9172">1</text></g><!--SRC=[ZP91JiCm44NtFiN8Ir0hs4QigYvW0vLA3-0aqyIGsfKzHg32tN7iE8aLWRgA_Vtc-yyuehHaH4LGTS9Qs0YBS640jo3h0Ww7fotxOKpar0wDrGhmar3LMT5H6alFueG5-0gfcg3wegLOewsCF9FKAjD5upcfA4A2yEMuaORQ0hP-4zIoqxhUao1d2zXCct1ubXKvuprsST7dZx7thdn3tqICggu9DDQ-egXQD6FFmmWk4_6etJY6XVTHErMZMVhkoTMew1_VWSZ3soW-fJSAMYGo3PNHNNVoQ3-yOOIZzQxLf1iZpkrWwqmtZnWUzk5xjKgZcocXtJcHnPmTJ9SmbfhWznpyKVyP1bi0fx2odCL99kPklRxXoTvZ9NPQDHP8SvQcDq0pF5xKkuhttlDlCilj2sHFfvpNqKjldttgssCdyGMj-43Eqezq3VmB]--></g></svg>