<svg xmlns="http://www.w3.org/2000/svg" xmlns:xlink="http://www.w3.org/1999/xlink" contentStyleType="text/css" height="648px" preserveAspectRatio="none" style="width:362px;height:648px;background:#FFFFFF;" version="1.1" viewBox="0 0 362 648" width="362px" zoomAndPan="magnify"><defs/><g><!--class Asignatura--><g id="elem_Asignatura"><rect codeLine="1" fill="#F1F1F1" height="96.8906" id="Asignatura" rx="2.5" ry="2.5" style="stroke:#181818;stroke-width:0.5;" width="155.4043" x="38.58" y="371.08"/><ellipse cx="75.0033" cy="387.08" fill="#ADD1B2" rx="11" ry="11" style="stroke:#181818;stroke-width:1.0;"/><path d="M77.9721,392.7206 Q77.394,393.0175 76.7533,393.1581 Q76.1127,393.3144 75.4096,393.3144 Q72.9096,393.3144 71.5815,391.6738 Q70.269,390.0175 70.269,386.8925 Q70.269,383.7675 71.5815,382.1113 Q72.9096,380.455 75.4096,380.455 Q76.1127,380.455 76.7533,380.6113 Q77.4096,380.7675 77.9721,381.0644 L77.9721,383.7831 Q77.3471,383.205 76.7533,382.9394 Q76.1596,382.6581 75.5346,382.6581 Q74.1908,382.6581 73.5033,383.7363 Q72.8158,384.7988 72.8158,386.8925 Q72.8158,388.9863 73.5033,390.0644 Q74.1908,391.1269 75.5346,391.1269 Q76.1596,391.1269 76.7533,390.8613 Q77.3471,390.58 77.9721,390.0019 L77.9721,392.7206 Z " fill="#000000"/><text fill="#000000" font-family="sans-serif" font-size="14" lengthAdjust="spacing" textLength="75.7969" x="93.7641" y="391.9267">Asignatura</text><line style="stroke:#181818;stroke-width:0.5;" x1="39.58" x2="192.9843" y1="403.08" y2="403.08"/><ellipse cx="49.58" cy="416.7284" fill="none" rx="3" ry="3" style="stroke:#038048;stroke-width:1.0;"/><text fill="#000000" font-family="sans-serif" font-size="14" lengthAdjust="spacing" textLength="57.3467" x="58.58" y="420.0751">id: UUID</text><ellipse cx="49.58" cy="433.0253" fill="none" rx="3" ry="3" style="stroke:#038048;stroke-width:1.0;"/><text fill="#000000" font-family="sans-serif" font-size="14" lengthAdjust="spacing" textLength="103.6875" x="58.58" y="436.372">nombre: string</text><ellipse cx="49.58" cy="449.3222" fill="none" rx="3" ry="3" style="stroke:#038048;stroke-width:1.0;"/><text fill="#000000" font-family="sans-serif" font-size="14" lengthAdjust="spacing" textLength="129.4043" x="58.58" y="452.6689">descripcion: string</text><line style="stroke:#181818;stroke-width:0.5;" x1="39.58" x2="192.9843" y1="459.9706" y2="459.9706"/></g><!--class Profesor--><g id="elem_Profesor"><rect codeLine="7" fill="#F1F1F1" height="96.8906" id="Profesor" rx="2.5" ry="2.5" style="stroke:#181818;stroke-width:0.5;" width="130.5557" x="7" y="544.97"/><ellipse cx="40.2856" cy="560.97" fill="#ADD1B2" rx="11" ry="11" style="stroke:#181818;stroke-width:1.0;"/><path d="M43.2544,566.6106 Q42.6763,566.9075 42.0356,567.0481 Q41.395,567.2044 40.6919,567.2044 Q38.1919,567.2044 36.8638,565.5638 Q35.5513,563.9075 35.5513,560.7825 Q35.5513,557.6575 36.8638,556.0013 Q38.1919,554.345 40.6919,554.345 Q41.395,554.345 42.0356,554.5013 Q42.6919,554.6575 43.2544,554.9544 L43.2544,557.6731 Q42.6294,557.095 42.0356,556.8294 Q41.4419,556.5481 40.8169,556.5481 Q39.4731,556.5481 38.7856,557.6263 Q38.0981,558.6888 38.0981,560.7825 Q38.0981,562.8763 38.7856,563.9544 Q39.4731,565.0169 40.8169,565.0169 Q41.4419,565.0169 42.0356,564.7513 Q42.6294,564.47 43.2544,563.8919 L43.2544,566.6106 Z " fill="#000000"/><text fill="#000000" font-family="sans-serif" font-size="14" lengthAdjust="spacing" textLength="57.9209" x="58.3491" y="565.8167">Profesor</text><line style="stroke:#181818;stroke-width:0.5;" x1="8" x2="136.5557" y1="576.97" y2="576.97"/><ellipse cx="18" cy="590.6184" fill="none" rx="3" ry="3" style="stroke:#038048;stroke-width:1.0;"/><text fill="#000000" font-family="sans-serif" font-size="14" lengthAdjust="spacing" textLength="57.3467" x="27" y="593.9651">id: UUID</text><ellipse cx="18" cy="606.9153" fill="none" rx="3" ry="3" style="stroke:#038048;stroke-width:1.0;"/><text fill="#000000" font-family="sans-serif" font-size="14" lengthAdjust="spacing" textLength="103.6875" x="27" y="610.262">nombre: string</text><ellipse cx="18" cy="623.2122" fill="none" rx="3" ry="3" style="stroke:#038048;stroke-width:1.0;"/><text fill="#000000" font-family="sans-serif" font-size="14" lengthAdjust="spacing" textLength="104.5557" x="27" y="626.5589">apellido: string</text><line style="stroke:#181818;stroke-width:0.5;" x1="8" x2="136.5557" y1="633.8606" y2="633.8606"/></g><!--class Casa--><g id="elem_Casa"><rect codeLine="13" fill="#F1F1F1" height="96.8906" id="Casa" rx="2.5" ry="2.5" style="stroke:#181818;stroke-width:0.5;" width="147.2832" x="116.64" y="7"/><ellipse cx="168.9178" cy="23" fill="#ADD1B2" rx="11" ry="11" style="stroke:#181818;stroke-width:1.0;"/><path d="M171.8866,28.6406 Q171.3085,28.9375 170.6678,29.0781 Q170.0272,29.2344 169.3241,29.2344 Q166.8241,29.2344 165.496,27.5938 Q164.1835,25.9375 164.1835,22.8125 Q164.1835,19.6875 165.496,18.0313 Q166.8241,16.375 169.3241,16.375 Q170.0272,16.375 170.6678,16.5313 Q171.3241,16.6875 171.8866,16.9844 L171.8866,19.7031 Q171.2616,19.125 170.6678,18.8594 Q170.0741,18.5781 169.4491,18.5781 Q168.1053,18.5781 167.4178,19.6563 Q166.7303,20.7188 166.7303,22.8125 Q166.7303,24.9063 167.4178,25.9844 Q168.1053,27.0469 169.4491,27.0469 Q170.0741,27.0469 170.6678,26.7813 Q171.2616,26.5 171.8866,25.9219 L171.8866,28.6406 Z " fill="#000000"/><text fill="#000000" font-family="sans-serif" font-size="14" lengthAdjust="spacing" textLength="34.2275" x="189.4178" y="27.8467">Casa</text><line style="stroke:#181818;stroke-width:0.5;" x1="117.64" x2="262.9232" y1="39" y2="39"/><ellipse cx="127.64" cy="52.6484" fill="none" rx="3" ry="3" style="stroke:#038048;stroke-width:1.0;"/><text fill="#000000" font-family="sans-serif" font-size="14" lengthAdjust="spacing" textLength="57.3467" x="136.64" y="55.9951">id: UUID</text><ellipse cx="127.64" cy="68.9453" fill="none" rx="3" ry="3" style="stroke:#038048;stroke-width:1.0;"/><text fill="#000000" font-family="sans-serif" font-size="14" lengthAdjust="spacing" textLength="103.6875" x="136.64" y="72.292">nombre: string</text><ellipse cx="127.64" cy="85.2422" fill="none" rx="3" ry="3" style="stroke:#038048;stroke-width:1.0;"/><text fill="#000000" font-family="sans-serif" font-size="14" lengthAdjust="spacing" textLength="121.2832" x="136.64" y="88.5889">fundadora: string</text><line style="stroke:#181818;stroke-width:0.5;" x1="117.64" x2="262.9232" y1="95.8906" y2="95.8906"/></g><!--class Estudiante--><g id="elem_Estudiante"><rect codeLine="19" fill="#F1F1F1" height="113.1875" id="Estudiante" rx="2.5" ry="2.5" style="stroke:#181818;stroke-width:0.5;" width="187.0273" x="96.76" y="180.89"/><ellipse cx="148.6072" cy="196.89" fill="#ADD1B2" rx="11" ry="11" style="stroke:#181818;stroke-width:1.0;"/><path d="M151.5759,202.5306 Q150.9978,202.8275 150.3572,202.9681 Q149.7165,203.1244 149.0134,203.1244 Q146.5134,203.1244 145.1853,201.4838 Q143.8728,199.8275 143.8728,196.7025 Q143.8728,193.5775 145.1853,191.9213 Q146.5134,190.265 149.0134,190.265 Q149.7165,190.265 150.3572,190.4213 Q151.0134,190.5775 151.5759,190.8744 L151.5759,193.5931 Q150.9509,193.015 150.3572,192.7494 Q149.7634,192.4681 149.1384,192.4681 Q147.7947,192.4681 147.1072,193.5463 Q146.4197,194.6088 146.4197,196.7025 Q146.4197,198.7963 147.1072,199.8744 Q147.7947,200.9369 149.1384,200.9369 Q149.7634,200.9369 150.3572,200.6713 Q150.9509,200.39 151.5759,199.8119 L151.5759,202.5306 Z " fill="#000000"/><text fill="#000000" font-family="sans-serif" font-size="14" lengthAdjust="spacing" textLength="74.833" x="169.1072" y="201.7367">Estudiante</text><line style="stroke:#181818;stroke-width:0.5;" x1="97.76" x2="282.7873" y1="212.89" y2="212.89"/><ellipse cx="107.76" cy="226.5384" fill="none" rx="3" ry="3" style="stroke:#038048;stroke-width:1.0;"/><text fill="#000000" font-family="sans-serif" font-size="14" lengthAdjust="spacing" textLength="57.3467" x="116.76" y="229.8851">id: UUID</text><ellipse cx="107.76" cy="242.8353" fill="none" rx="3" ry="3" style="stroke:#038048;stroke-width:1.0;"/><text fill="#000000" font-family="sans-serif" font-size="14" lengthAdjust="spacing" textLength="103.6875" x="116.76" y="246.182">nombre: string</text><ellipse cx="107.76" cy="259.1322" fill="none" rx="3" ry="3" style="stroke:#038048;stroke-width:1.0;"/><text fill="#000000" font-family="sans-serif" font-size="14" lengthAdjust="spacing" textLength="104.5557" x="116.76" y="262.4789">apellido: string</text><ellipse cx="107.76" cy="275.4291" fill="none" rx="3" ry="3" style="stroke:#038048;stroke-width:1.0;"/><text fill="#000000" font-family="sans-serif" font-size="14" lengthAdjust="spacing" textLength="161.0273" x="116.76" y="278.7757">fechaNacimiento: Date</text><line style="stroke:#181818;stroke-width:0.5;" x1="97.76" x2="282.7873" y1="286.0775" y2="286.0775"/></g><!--class EstudianteAsignatura--><g id="elem_EstudianteAsignatura"><rect codeLine="26" fill="#F1F1F1" height="96.8906" id="EstudianteAsignatura" rx="2.5" ry="2.5" style="stroke:#181818;stroke-width:0.5;" width="182.8711" x="172.84" y="544.97"/><ellipse cx="187.9485" cy="560.97" fill="#ADD1B2" rx="11" ry="11" style="stroke:#181818;stroke-width:1.0;"/><path d="M190.9173,566.6106 Q190.3392,566.9075 189.6985,567.0481 Q189.0579,567.2044 188.3548,567.2044 Q185.8548,567.2044 184.5267,565.5638 Q183.2142,563.9075 183.2142,560.7825 Q183.2142,557.6575 184.5267,556.0013 Q185.8548,554.345 188.3548,554.345 Q189.0579,554.345 189.6985,554.5013 Q190.3548,554.6575 190.9173,554.9544 L190.9173,557.6731 Q190.2923,557.095 189.6985,556.8294 Q189.1048,556.5481 188.4798,556.5481 Q187.136,556.5481 186.4485,557.6263 Q185.761,558.6888 185.761,560.7825 Q185.761,562.8763 186.4485,563.9544 Q187.136,565.0169 188.4798,565.0169 Q189.1048,565.0169 189.6985,564.7513 Q190.2923,564.47 190.9173,563.8919 L190.9173,566.6106 Z " fill="#000000"/><text fill="#000000" font-family="sans-serif" font-size="14" lengthAdjust="spacing" textLength="150.6299" x="201.9727" y="565.8167">EstudianteAsignatura</text><line style="stroke:#181818;stroke-width:0.5;" x1="173.84" x2="354.7111" y1="576.97" y2="576.97"/><ellipse cx="183.84" cy="590.6184" fill="none" rx="3" ry="3" style="stroke:#038048;stroke-width:1.0;"/><text fill="#000000" font-family="sans-serif" font-size="14" lengthAdjust="spacing" textLength="132.1865" x="192.84" y="593.9651">estudianteId: UUID</text><ellipse cx="183.84" cy="606.9153" fill="none" rx="3" ry="3" style="stroke:#038048;stroke-width:1.0;"/><text fill="#000000" font-family="sans-serif" font-size="14" lengthAdjust="spacing" textLength="132.3848" x="192.84" y="610.262">asignaturaId: UUID</text><ellipse cx="183.84" cy="623.2122" fill="none" rx="3" ry="3" style="stroke:#038048;stroke-width:1.0;"/><text fill="#000000" font-family="sans-serif" font-size="14" lengthAdjust="spacing" textLength="156.8711" x="192.84" y="626.5589">fechaInscripcion: Date</text><line style="stroke:#181818;stroke-width:0.5;" x1="173.84" x2="354.7111" y1="633.8606" y2="633.8606"/></g><!--link Asignatura to Profesor--><g id="link_Asignatura_Profesor"><path codeLine="32" d="M104.02,468.41 C97.94,492.15 90.62,520.75 84.54,544.49 " fill="none" id="Asignatura-Profesor" style="stroke:#181818;stroke-width:1.0;"/><text fill="#000000" font-family="sans-serif" font-size="13" lengthAdjust="spacing" textLength="47.2139" x="97.28" y="511.0369">ense&#241;a</text><text fill="#000000" font-family="sans-serif" font-size="13" lengthAdjust="spacing" textLength="8.271" x="93.853" y="488.0625">1</text><text fill="#000000" font-family="sans-serif" font-size="13" lengthAdjust="spacing" textLength="8.271" x="77.6684" y="533.9837">1</text></g><!--link Casa to Estudiante--><g id="link_Casa_Estudiante"><path codeLine="33" d="M190.28,104.22 C190.28,127.66 190.28,156.04 190.28,180.49 " fill="none" id="Casa-Estudiante" style="stroke:#181818;stroke-width:1.0;"/><text fill="#000000" font-family="sans-serif" font-size="13" lengthAdjust="spacing" textLength="78.1714" x="191.28" y="146.9569">pertenece a</text><text fill="#000000" font-family="sans-serif" font-size="13" lengthAdjust="spacing" textLength="8.271" x="181.7605" y="123.8577">1</text><text fill="#000000" font-family="sans-serif" font-size="13" lengthAdjust="spacing" textLength="23.0356" x="165.8814" y="169.7048">0..*</text></g><!--link Estudiante to Asignatura--><g id="link_Estudiante_Asignatura"><path codeLine="34" d="M167.27,294.46 C157.21,318.93 145.54,347.33 135.9,370.77 " fill="none" id="Estudiante-Asignatura" style="stroke:#181818;stroke-width:1.0;"/><text fill="#000000" font-family="sans-serif" font-size="13" lengthAdjust="spacing" textLength="33.6807" x="154.28" y="337.1469">toma</text><text fill="#000000" font-family="sans-serif" font-size="13" lengthAdjust="spacing" textLength="23.0356" x="140.2826" y="313.9896">0..*</text><text fill="#000000" font-family="sans-serif" font-size="13" lengthAdjust="spacing" textLength="23.0356" x="114.0441" y="359.9353">0..*</text></g><!--link Estudiante to EstudianteAsignatura--><g id="link_Estudiante_EstudianteAsignatura"><path codeLine="35" d="M202,294.57 C216.43,363.57 240.68,479.54 254.27,544.54 " fill="none" id="Estudiante-EstudianteAsignatura" style="stroke:#181818;stroke-width:1.0;"/><text fill="#000000" font-family="sans-serif" font-size="13" lengthAdjust="spacing" textLength="14.771" x="239.28" y="424.0869">es</text><text fill="#000000" font-family="sans-serif" font-size="13" lengthAdjust="spacing" textLength="23.0356" x="179.0282" y="314.1124">0..*</text><text fill="#000000" font-family="sans-serif" font-size="13" lengthAdjust="spacing" textLength="23.0356" x="228.3826" y="534.0404">0..*</text></g><!--link Asignatura to EstudianteAsignatura--><g id="link_Asignatura_EstudianteAsignatura"><path codeLine="36" d="M157.5,468.41 C177.95,492.15 202.57,520.75 223.02,544.49 " fill="none" id="Asignatura-EstudianteAsignatura" style="stroke:#181818;stroke-width:1.0;"/><text fill="#000000" font-family="sans-serif" font-size="13" lengthAdjust="spacing" textLength="14.771" x="196.28" y="511.0369">es</text><text fill="#000000" font-family="sans-serif" font-size="13" lengthAdjust="spacing" textLength="23.0356" x="138.4957" y="488.0625">0..*</text><text fill="#000000" font-family="sans-serif" font-size="13" lengthAdjust="spacing" textLength="23.0356" x="192.9334" y="533.9837">0..*</text></g><!--SRC=[dL0xRiCm3Drz2a9ZYnZjwgseEtWfkkG0hCGa16pA4EMfoA5oXbwihb3R2XmWHYT1Z- -7PrjKXHVbes0S0i9N0V08x2hOxviwVSHtdu4gq1XOZWbof3PmRzdBZ9-BmYQtZ-0Ff3vizCAUsfQTNnkzecujT1Z4eVC1rovl6WV7A97-MoW5a3tXErhkc2IEjneZtGfPRKdpgSc3SUPTmIcdaMpUAIWpDiy6ThlqJ6DNO4YKlYzeYhJRn7agomUJzHk9FOL8GfPW96Vp_74NrH8vggBlxj1lZV3RIyrL-Uso7m00]--></g></svg>